<svg width="151" height="50" viewBox="0 0 151 50" fill="none" xmlns="http://www.w3.org/2000/svg">
<rect x="0.748546" y="1.19804" width="149.147" height="47.724" rx="4.38282" stroke="white" stroke-opacity="0.5" stroke-width="0.973959"/>
<path d="M30.4864 25.641C30.5001 24.5784 30.7823 23.5366 31.3069 22.6124C31.8314 21.6882 32.5812 20.9117 33.4865 20.3551C32.9114 19.5338 32.1527 18.8578 31.2707 18.381C30.3886 17.9042 29.4076 17.6396 28.4054 17.6082C26.2676 17.3838 24.1951 18.8875 23.1057 18.8875C21.9952 18.8875 20.3179 17.6305 18.5118 17.6677C17.3435 17.7054 16.2049 18.0451 15.207 18.6537C14.209 19.2623 13.3858 20.1191 12.8174 21.1405C10.3552 25.4033 12.1918 31.6682 14.5503 35.1139C15.7303 36.8012 17.1094 38.6859 18.9139 38.6191C20.6798 38.5459 21.3393 37.4931 23.4708 37.4931C25.5826 37.4931 26.2013 38.6191 28.0425 38.5766C29.9373 38.5459 31.1311 36.8818 32.2697 35.1786C33.1176 33.9763 33.77 32.6476 34.2028 31.2415C33.102 30.7759 32.1625 29.9966 31.5017 29.0007C30.8408 28.0047 30.4877 26.8363 30.4864 25.641V25.641Z" fill="white"/>
<path d="M27.0088 15.3421C28.0419 14.1018 28.5509 12.5077 28.4277 10.8982C26.8492 11.064 25.3912 11.8184 24.3441 13.011C23.8322 13.5937 23.4401 14.2715 23.1902 15.0058C22.9404 15.7401 22.8377 16.5164 22.8881 17.2904C23.6776 17.2985 24.4586 17.1274 25.1724 16.7899C25.8862 16.4524 26.5141 15.9574 27.0088 15.3421Z" fill="white"/>
<path d="M52.8078 34.3476H46.7818L45.3347 38.6206H42.7823L48.4901 22.8115H51.1419L56.8496 38.6206H54.2537L52.8078 34.3476ZM47.4059 32.3758H52.1825L49.8278 25.441H49.7619L47.4059 32.3758Z" fill="white"/>
<path d="M69.1764 32.8582C69.1764 36.4399 67.2593 38.7412 64.3663 38.7412C63.6334 38.7795 62.9046 38.6107 62.2632 38.2541C61.6219 37.8974 61.0939 37.3674 60.7397 36.7246H60.685V42.4336H58.3191V27.0945H60.6092V29.0115H60.6527C61.0231 28.3719 61.56 27.8446 62.2063 27.4858C62.8525 27.1269 63.584 26.95 64.3228 26.9739C67.2481 26.9739 69.1764 29.2863 69.1764 32.8582ZM66.7446 32.8582C66.7446 30.5246 65.5387 28.9904 63.6987 28.9904C61.891 28.9904 60.6751 30.5569 60.6751 32.8582C60.6751 35.1805 61.891 36.7358 63.6987 36.7358C65.5387 36.7358 66.7446 35.2129 66.7446 32.8582Z" fill="white"/>
<path d="M81.8625 32.8582C81.8625 36.44 79.9454 38.7413 77.0524 38.7413C76.3195 38.7796 75.5907 38.6108 74.9493 38.2541C74.3079 37.8975 73.78 37.3675 73.4258 36.7247H73.3711V42.4337H71.0052V27.0945H73.2952V29.0116H73.3387C73.7092 28.3719 74.2461 27.8447 74.8923 27.4858C75.5386 27.127 76.27 26.9501 77.0088 26.974C79.9342 26.974 81.8625 29.2864 81.8625 32.8582ZM79.4307 32.8582C79.4307 30.5247 78.2247 28.9905 76.3847 28.9905C74.5771 28.9905 73.3612 30.557 73.3612 32.8582C73.3612 35.1806 74.5771 36.7359 76.3847 36.7359C78.2248 36.7359 79.4307 35.2129 79.4307 32.8582H79.4307Z" fill="white"/>
<path d="M90.2469 34.2158C90.4222 35.7836 91.9452 36.8129 94.0264 36.8129C96.0206 36.8129 97.4553 35.7835 97.4553 34.3699C97.4553 33.1429 96.59 32.4081 94.5411 31.9046L92.4922 31.411C89.5893 30.7098 88.2416 29.3522 88.2416 27.1492C88.2416 24.4215 90.6187 22.5479 93.9941 22.5479C97.3346 22.5479 99.6247 24.4215 99.7018 27.1492H97.3135C97.1705 25.5715 95.8664 24.6192 93.9605 24.6192C92.0546 24.6192 90.7504 25.5827 90.7504 26.9851C90.7504 28.1027 91.5834 28.7604 93.6211 29.2639L95.3628 29.6916C98.6065 30.4586 99.9542 31.7616 99.9542 34.074C99.9542 37.0317 97.5982 38.8841 93.8511 38.8841C90.3451 38.8841 87.978 37.0752 87.825 34.2157L90.2469 34.2158Z" fill="white"/>
<path d="M105.06 24.3669V27.0945H107.252V28.9681H105.06V35.3223C105.06 36.3095 105.499 36.7695 106.463 36.7695C106.723 36.7649 106.983 36.7467 107.241 36.7147V38.5771C106.808 38.658 106.367 38.6947 105.927 38.6865C103.593 38.6865 102.683 37.81 102.683 35.5747V28.9681H101.007V27.0945H102.683V24.3669H105.06Z" fill="white"/>
<path d="M108.521 32.8582C108.521 29.2317 110.657 26.9528 113.988 26.9528C117.33 26.9528 119.456 29.2316 119.456 32.8582C119.456 36.4947 117.341 38.7636 113.988 38.7636C110.636 38.7636 108.521 36.4947 108.521 32.8582ZM117.045 32.8582C117.045 30.3705 115.905 28.9022 113.988 28.9022C112.071 28.9022 110.932 30.3817 110.932 32.8582C110.932 35.3559 112.071 36.813 113.988 36.813C115.905 36.813 117.045 35.3559 117.045 32.8582H117.045Z" fill="white"/>
<path d="M121.406 27.0945H123.663V29.0563H123.718C123.87 28.4436 124.229 27.9021 124.734 27.5229C125.239 27.1437 125.859 26.9498 126.49 26.9739C126.763 26.9729 127.035 27.0026 127.301 27.0622V29.2751C126.956 29.17 126.597 29.1217 126.238 29.1322C125.894 29.1182 125.551 29.1788 125.233 29.3098C124.915 29.4408 124.629 29.6391 124.395 29.891C124.161 30.1429 123.984 30.4426 123.876 30.7693C123.769 31.0961 123.733 31.4422 123.772 31.784V38.6206H121.406L121.406 27.0945Z" fill="white"/>
<path d="M138.209 35.2353C137.891 37.3277 135.853 38.7636 133.246 38.7636C129.893 38.7636 127.812 36.5171 127.812 32.9129C127.812 29.2976 129.904 26.9528 133.146 26.9528C136.335 26.9528 138.341 29.1434 138.341 32.6381V33.4487H130.2V33.5917C130.162 34.0159 130.215 34.4432 130.356 34.8453C130.496 35.2474 130.72 35.6151 131.013 35.9238C131.307 36.2326 131.662 36.4755 132.057 36.6363C132.451 36.7971 132.875 36.8721 133.301 36.8565C133.86 36.9089 134.421 36.7794 134.9 36.4873C135.38 36.1952 135.752 35.7561 135.962 35.2353L138.209 35.2353ZM130.211 31.7952H135.973C135.995 31.4138 135.937 31.0321 135.804 30.6741C135.67 30.3161 135.465 29.9895 135.199 29.7148C134.934 29.4402 134.614 29.2233 134.261 29.0779C133.908 28.9325 133.528 28.8617 133.146 28.8699C132.761 28.8676 132.379 28.9416 132.023 29.0877C131.666 29.2338 131.342 29.449 131.069 29.721C130.796 29.9929 130.58 30.3163 130.433 30.6723C130.285 31.0283 130.21 31.41 130.211 31.7952V31.7952Z" fill="white"/>
<path d="M47.1094 10.9119C47.6054 10.8763 48.1032 10.9512 48.5667 11.1313C49.0302 11.3113 49.4481 11.592 49.79 11.9531C50.1319 12.3142 50.3895 12.7466 50.544 13.2193C50.6986 13.692 50.7463 14.193 50.6838 14.6864C50.6838 17.1132 49.3721 18.5082 47.1094 18.5082H44.3656V10.9119H47.1094ZM45.5454 17.4339H46.9776C47.3321 17.4551 47.6868 17.397 48.0159 17.2638C48.345 17.1306 48.6404 16.9257 48.8803 16.664C49.1203 16.4023 49.2989 16.0904 49.4031 15.7509C49.5073 15.4115 49.5345 15.0531 49.4828 14.7018C49.5308 14.352 49.5008 13.9958 49.395 13.6588C49.2892 13.3219 49.1101 13.0125 48.8707 12.7529C48.6313 12.4933 48.3374 12.2899 48.0101 12.1572C47.6828 12.0245 47.3303 11.9658 46.9776 11.9854H45.5454V17.4339Z" fill="white"/>
<path d="M52.0165 15.6393C51.9805 15.2625 52.0236 14.8824 52.143 14.5233C52.2625 14.1642 52.4557 13.8341 52.7102 13.554C52.9648 13.274 53.275 13.0502 53.6211 12.8971C53.9672 12.744 54.3415 12.6649 54.7199 12.6649C55.0984 12.6649 55.4727 12.744 55.8187 12.8971C56.1648 13.0502 56.4751 13.274 56.7296 13.554C56.9842 13.8341 57.1774 14.1642 57.2968 14.5233C57.4163 14.8824 57.4594 15.2625 57.4234 15.6393C57.4601 16.0164 57.4175 16.397 57.2984 16.7567C57.1792 17.1164 56.9861 17.4471 56.7315 17.7277C56.4769 18.0083 56.1664 18.2326 55.82 18.386C55.4735 18.5395 55.0988 18.6187 54.7199 18.6187C54.341 18.6187 53.9663 18.5395 53.6199 18.386C53.2735 18.2326 52.963 18.0083 52.7083 17.7277C52.4537 17.4471 52.2607 17.1164 52.1415 16.7567C52.0224 16.397 51.9798 16.0164 52.0165 15.6393V15.6393ZM56.2597 15.6393C56.2597 14.3966 55.7015 13.67 54.7218 13.67C53.7384 13.67 53.1852 14.3966 53.1852 15.6393C53.1852 16.8918 53.7384 17.6129 54.7218 17.6129C55.7015 17.6129 56.2597 16.8869 56.2597 15.6393H56.2597Z" fill="white"/>
<path d="M64.6106 18.508H63.437L62.2522 14.286H62.1627L60.9828 18.508H59.8204L58.2402 12.7754H59.3877L60.4147 17.1497H60.4992L61.6778 12.7754H62.7632L63.9417 17.1497H64.0313L65.0532 12.7754H66.1846L64.6106 18.508Z" fill="white"/>
<path d="M67.5136 12.7754H68.6027V13.6861H68.6872C68.8306 13.359 69.0725 13.0848 69.3792 12.9017C69.6858 12.7186 70.0419 12.6358 70.3979 12.6647C70.6768 12.6438 70.9569 12.6858 71.2174 12.7878C71.4779 12.8898 71.7121 13.049 71.9026 13.2538C72.0932 13.4586 72.2352 13.7036 72.3182 13.9707C72.4012 14.2378 72.4231 14.5202 72.3821 14.7969V18.5079H71.2508V15.081C71.2508 14.1598 70.8505 13.7016 70.0138 13.7016C69.8244 13.6928 69.6353 13.725 69.4596 13.7961C69.2838 13.8672 69.1255 13.9754 68.9955 14.1134C68.8655 14.2514 68.7668 14.4158 68.7063 14.5955C68.6458 14.7752 68.6249 14.9658 68.6449 15.1543V18.508H67.5136L67.5136 12.7754Z" fill="white"/>
<path d="M74.1848 10.5376H75.3162V18.508H74.1848V10.5376Z" fill="white"/>
<path d="M76.8889 15.6393C76.8529 15.2625 76.896 14.8824 77.0155 14.5233C77.135 14.1642 77.3282 13.834 77.5828 13.5539C77.8373 13.2739 78.1476 13.0501 78.4937 12.897C78.8399 12.7439 79.2142 12.6648 79.5926 12.6648C79.9711 12.6648 80.3454 12.7439 80.6915 12.897C81.0376 13.0501 81.3479 13.2739 81.6025 13.5539C81.857 13.834 82.0503 14.1642 82.1698 14.5233C82.2893 14.8824 82.3324 15.2625 82.2964 15.6393C82.333 16.0164 82.2904 16.397 82.1712 16.7567C82.052 17.1164 81.8589 17.4472 81.6043 17.7278C81.3497 18.0083 81.0391 18.2326 80.6927 18.386C80.3462 18.5395 79.9715 18.6187 79.5926 18.6187C79.2137 18.6187 78.839 18.5395 78.4925 18.386C78.1461 18.2326 77.8356 18.0083 77.5809 17.7278C77.3263 17.4472 77.1332 17.1164 77.014 16.7567C76.8948 16.397 76.8522 16.0164 76.8889 15.6393V15.6393ZM81.1321 15.6393C81.1321 14.3967 80.5738 13.67 79.5942 13.67C78.6108 13.67 78.0576 14.3967 78.0576 15.6393C78.0576 16.8919 78.6108 17.6129 79.5942 17.6129C80.5738 17.6129 81.1321 16.8869 81.1321 15.6393H81.1321Z" fill="white"/>
<path d="M83.4874 16.8868C83.4874 15.8549 84.2557 15.26 85.6196 15.1755L87.1724 15.086V14.5912C87.1724 13.9857 86.772 13.6438 85.9988 13.6438C85.3672 13.6438 84.9296 13.8757 84.804 14.281H83.7087C83.8243 13.2963 84.7505 12.6648 86.051 12.6648C87.4882 12.6648 88.2988 13.3802 88.2988 14.5912V18.508H87.2097V17.7024H87.1202C86.9385 17.9914 86.6833 18.227 86.3808 18.3851C86.0783 18.5432 85.7393 18.6182 85.3983 18.6025C85.1576 18.6275 84.9144 18.6018 84.6843 18.5271C84.4541 18.4524 84.2422 18.3302 84.0622 18.1686C83.8821 18.007 83.738 17.8094 83.639 17.5886C83.54 17.3678 83.4883 17.1288 83.4874 16.8868V16.8868ZM87.1724 16.397V15.9177L85.7725 16.0072C84.983 16.0601 84.625 16.3286 84.625 16.834C84.625 17.3499 85.0725 17.6502 85.688 17.6502C85.8683 17.6684 86.0505 17.6502 86.2236 17.5966C86.3967 17.543 86.5574 17.4552 86.6958 17.3382C86.8343 17.2213 86.9479 17.0777 87.0298 16.916C87.1116 16.7543 87.1601 16.5778 87.1724 16.397V16.397Z" fill="white"/>
<path d="M89.7857 15.6392C89.7857 13.8278 90.7169 12.6803 92.1652 12.6803C92.5235 12.6638 92.8791 12.7496 93.1904 12.9277C93.5017 13.1058 93.7559 13.3688 93.9232 13.6861H94.0077V10.5376H95.1391V18.508H94.055V17.6023H93.9655C93.7852 17.9174 93.5222 18.1771 93.2048 18.3534C92.8875 18.5297 92.528 18.6159 92.1653 18.6025C90.7069 18.6025 89.7857 17.455 89.7857 15.6392ZM90.9544 15.6392C90.9544 16.8551 91.5275 17.5868 92.4861 17.5868C93.4396 17.5868 94.0289 16.8446 94.0289 15.6442C94.0289 14.4495 93.4334 13.6967 92.4861 13.6967C91.5337 13.6967 90.9543 14.4333 90.9543 15.6392H90.9544Z" fill="white"/>
<path d="M99.8199 15.6393C99.7839 15.2625 99.827 14.8824 99.9464 14.5233C100.066 14.1642 100.259 13.8341 100.514 13.554C100.768 13.274 101.078 13.0502 101.425 12.8971C101.771 12.744 102.145 12.6649 102.523 12.6649C102.902 12.6649 103.276 12.744 103.622 12.8971C103.968 13.0502 104.279 13.274 104.533 13.554C104.788 13.8341 104.981 14.1642 105.1 14.5233C105.22 14.8824 105.263 15.2625 105.227 15.6393C105.264 16.0164 105.221 16.397 105.102 16.7567C104.983 17.1164 104.79 17.4471 104.535 17.7277C104.28 18.0083 103.97 18.2326 103.623 18.386C103.277 18.5395 102.902 18.6187 102.523 18.6187C102.144 18.6187 101.77 18.5395 101.423 18.386C101.077 18.2326 100.766 18.0083 100.512 17.7277C100.257 17.4471 100.064 17.1164 99.9449 16.7567C99.8258 16.397 99.7832 16.0164 99.8199 15.6393V15.6393ZM104.063 15.6393C104.063 14.3966 103.505 13.67 102.525 13.67C101.542 13.67 100.989 14.3966 100.989 15.6393C100.989 16.8918 101.542 17.6129 102.525 17.6129C103.505 17.6129 104.063 16.8869 104.063 15.6393Z" fill="white"/>
<path d="M106.745 12.7754H107.834V13.6861H107.918C108.062 13.359 108.304 13.0848 108.61 12.9017C108.917 12.7186 109.273 12.6358 109.629 12.6647C109.908 12.6438 110.188 12.6858 110.449 12.7878C110.709 12.8898 110.943 13.049 111.134 13.2538C111.324 13.4586 111.466 13.7036 111.549 13.9707C111.632 14.2378 111.654 14.5202 111.613 14.7969V18.5079H110.482V15.081C110.482 14.1598 110.082 13.7016 109.245 13.7016C109.056 13.6928 108.867 13.725 108.691 13.7961C108.515 13.8672 108.357 13.9754 108.227 14.1134C108.097 14.2514 107.998 14.4158 107.938 14.5955C107.877 14.7752 107.856 14.9658 107.876 15.1543V18.508H106.745V12.7754Z" fill="white"/>
<path d="M118.006 11.3482V12.8015H119.248V13.7545H118.006V16.7022C118.006 17.3027 118.254 17.5656 118.817 17.5656C118.961 17.5652 119.105 17.5565 119.248 17.5395V18.4819C119.045 18.5183 118.839 18.5376 118.633 18.5397C117.375 18.5397 116.873 18.0971 116.873 16.9919V13.7544H115.963V12.8015H116.873V11.3482H118.006Z" fill="white"/>
<path d="M120.793 10.5376H121.915V13.6967H122.004C122.155 13.3665 122.403 13.0908 122.716 12.907C123.029 12.7233 123.391 12.6404 123.752 12.6697C124.03 12.6546 124.307 12.701 124.565 12.8054C124.822 12.9099 125.054 13.0699 125.242 13.274C125.431 13.4781 125.572 13.7213 125.656 13.9863C125.739 14.2513 125.764 14.5315 125.727 14.8069V18.508H124.594V15.086C124.594 14.1703 124.168 13.7066 123.368 13.7066C123.174 13.6906 122.978 13.7174 122.795 13.7849C122.612 13.8525 122.446 13.9592 122.309 14.0976C122.171 14.236 122.066 14.4028 121.999 14.5863C121.933 14.7698 121.908 14.9656 121.925 15.1599V18.508H120.794L120.793 10.5376Z" fill="white"/>
<path d="M132.323 16.9602C132.17 17.4841 131.837 17.9373 131.382 18.2405C130.928 18.5437 130.382 18.6776 129.839 18.6187C129.462 18.6287 129.086 18.5563 128.739 18.4067C128.392 18.2571 128.082 18.0338 127.83 17.7522C127.578 17.4707 127.391 17.1377 127.28 16.7764C127.17 16.4151 127.14 16.034 127.191 15.6598C127.141 15.2844 127.172 14.9025 127.282 14.5401C127.392 14.1777 127.579 13.8432 127.829 13.5592C128.08 13.2752 128.389 13.0484 128.735 12.8941C129.081 12.7398 129.456 12.6616 129.834 12.6648C131.429 12.6648 132.392 13.7546 132.392 15.5547V15.9495H128.344V16.0129C128.326 16.2232 128.352 16.435 128.421 16.6345C128.49 16.8341 128.6 17.0171 128.744 17.1717C128.888 17.3263 129.062 17.4492 129.256 17.5324C129.45 17.6157 129.659 17.6575 129.87 17.6551C130.141 17.6876 130.415 17.6389 130.658 17.5152C130.901 17.3914 131.101 17.1982 131.234 16.9602L132.323 16.9602ZM128.344 15.1127H131.239C131.253 14.9203 131.227 14.7271 131.162 14.5454C131.098 14.3637 130.995 14.1976 130.862 14.0577C130.73 13.9179 130.569 13.8074 130.391 13.7333C130.213 13.6592 130.021 13.6233 129.828 13.6277C129.632 13.6252 129.438 13.662 129.257 13.7357C129.076 13.8095 128.911 13.9188 128.773 14.0572C128.634 14.1956 128.525 14.3603 128.451 14.5416C128.378 14.7229 128.341 14.9171 128.344 15.1127H128.344Z" fill="white"/>
</svg>
