<svg width="20" height="20" viewBox="0 0 20 20" fill="none" xmlns="http://www.w3.org/2000/svg">
<g clip-path="url(#clip0_7_96)">
<path d="M19.3203 13.2656L16.6641 4.4219C16.613 4.24303 16.5217 4.07822 16.3971 3.94009C16.2725 3.80197 16.118 3.69419 15.9453 3.62502H15.8984L15.9453 3.6094C15.0737 3.26017 14.1714 2.99338 13.25 2.81252C13.1695 2.7966 13.0866 2.79671 13.0061 2.81283C12.9256 2.82895 12.849 2.86077 12.7809 2.90648C12.7127 2.95219 12.6541 3.01088 12.6086 3.07921C12.5631 3.14754 12.5315 3.22416 12.5156 3.30471C12.4985 3.38478 12.4976 3.46745 12.5127 3.54791C12.5279 3.62836 12.5589 3.70499 12.604 3.77334C12.6491 3.84169 12.7073 3.90038 12.7753 3.946C12.8433 3.99163 12.9197 4.02327 13 4.03908C13.3516 4.1094 13.6953 4.19533 14.0313 4.28908C14.155 4.35331 14.2537 4.45706 14.3117 4.58384C14.3697 4.71062 14.3836 4.85314 14.3513 4.98875C14.3189 5.12436 14.2422 5.24527 14.1333 5.33225C14.0243 5.41922 13.8894 5.46728 13.75 5.46877H13.6875C12.4836 5.15479 11.2442 4.99725 10 5.00002C8.78504 4.9964 7.57464 5.14868 6.39844 5.45315C6.24877 5.49264 6.08977 5.47518 5.95223 5.40416C5.81469 5.33314 5.70841 5.21361 5.65395 5.06871C5.59949 4.92381 5.60074 4.76386 5.65745 4.61983C5.71417 4.47581 5.82231 4.35795 5.96094 4.28908H5.96876C6.30469 4.19533 6.64844 4.1094 7 4.03908C7.08055 4.0232 7.15718 3.9916 7.2255 3.94609C7.29383 3.90058 7.35253 3.84206 7.39823 3.77386C7.44394 3.70566 7.47576 3.62913 7.49189 3.54863C7.50801 3.46813 7.50811 3.38525 7.49219 3.30471C7.45824 3.14305 7.36242 3.00108 7.2252 2.90911C7.08799 2.81715 6.92025 2.78248 6.75782 2.81252C5.83315 2.99743 4.92807 3.26947 4.05469 3.62502C3.88202 3.69419 3.72747 3.80197 3.60289 3.94009C3.47831 4.07822 3.38699 4.24303 3.33594 4.4219L0.679693 13.2656C0.610784 13.4969 0.610262 13.7431 0.678189 13.9746C0.746117 14.2061 0.879591 14.413 1.06251 14.5703C1.13437 14.6396 1.21001 14.7048 1.28907 14.7656H1.29688C2.56251 15.7969 4.22657 16.586 6.10157 17.0391C6.14956 17.0544 6.19962 17.0624 6.25 17.0625C6.40453 17.065 6.55448 17.0101 6.67091 16.9085C6.78734 16.8068 6.86199 16.6657 6.88044 16.5122C6.89889 16.3588 6.85984 16.2039 6.77082 16.0776C6.68181 15.9513 6.54914 15.8624 6.39844 15.8281C5.55551 15.6245 4.73601 15.3339 3.95313 14.961V14.961C3.84598 14.8606 3.7776 14.7256 3.75999 14.5799C3.74237 14.4341 3.77665 14.2867 3.85681 14.1637C3.93697 14.0407 4.05789 13.9498 4.19835 13.907C4.33882 13.8642 4.48987 13.8723 4.62501 13.9297C6.10938 14.586 7.97657 15 10 15C12.0234 15 13.8906 14.586 15.375 13.9297C15.5101 13.8723 15.6612 13.8642 15.8017 13.907C15.9421 13.9498 16.063 14.0407 16.1432 14.1637C16.2234 14.2867 16.2576 14.4341 16.24 14.5799C16.2224 14.7256 16.154 14.8606 16.0469 14.961C15.264 15.3339 14.4445 15.6245 13.6016 15.8281C13.4509 15.8624 13.3182 15.9513 13.2292 16.0776C13.1402 16.2039 13.1011 16.3588 13.1196 16.5122C13.138 16.6657 13.2127 16.8068 13.3291 16.9085C13.4455 17.0101 13.5955 17.065 13.75 17.0625C13.8004 17.0624 13.8505 17.0544 13.8984 17.0391C15.7734 16.586 17.4375 15.7969 18.7031 14.7656H18.7109C18.79 14.7048 18.8656 14.6396 18.9375 14.5703C19.1204 14.413 19.2539 14.2061 19.3218 13.9746C19.3897 13.7431 19.3892 13.4969 19.3203 13.2656V13.2656ZM7.5 12.1875C7.31458 12.1875 7.13333 12.1325 6.97916 12.0295C6.82499 11.9265 6.70482 11.7801 6.63387 11.6088C6.56291 11.4375 6.54434 11.249 6.58052 11.0671C6.61669 10.8853 6.70598 10.7182 6.83709 10.5871C6.9682 10.456 7.13525 10.3667 7.31711 10.3305C7.49896 10.2944 7.68746 10.3129 7.85877 10.3839C8.03008 10.4548 8.17649 10.575 8.27951 10.7292C8.38252 10.8833 8.4375 11.0646 8.4375 11.25C8.4375 11.4987 8.33873 11.7371 8.16292 11.9129C7.9871 12.0887 7.74865 12.1875 7.5 12.1875ZM12.5 12.1875C12.3146 12.1875 12.1333 12.1325 11.9792 12.0295C11.825 11.9265 11.7048 11.7801 11.6339 11.6088C11.5629 11.4375 11.5443 11.249 11.5805 11.0671C11.6167 10.8853 11.706 10.7182 11.8371 10.5871C11.9682 10.456 12.1353 10.3667 12.3171 10.3305C12.499 10.2944 12.6875 10.3129 12.8588 10.3839C13.0301 10.4548 13.1765 10.575 13.2795 10.7292C13.3825 10.8833 13.4375 11.0646 13.4375 11.25C13.4375 11.4987 13.3387 11.7371 13.1629 11.9129C12.9871 12.0887 12.7486 12.1875 12.5 12.1875Z" fill="#9E9E9E"/>
</g>
<defs>
<clipPath id="clip0_7_96">
<rect width="20" height="20" fill="white"/>
</clipPath>
</defs>
</svg>
