<svg width="100" height="24" viewBox="0 0 100 24" fill="none" xmlns="http://www.w3.org/2000/svg">
<path d="M0.461613 15.2737C0.153871 14.4419 0 13.5802 0 12.6869C0 11.6089 0.153871 10.6241 0.492387 9.70002C3.20227 2.3406 12.9023 0 24.6958 0C36.4894 0 43.9411 3.26382 45.8509 8.4374C46.1586 9.26918 46.3125 10.1309 46.3125 11.0242C46.3125 12.1022 46.1586 13.0869 45.8201 14.011C43.1102 21.3705 33.4102 23.7111 21.6167 23.7111C9.82312 23.7111 2.37137 20.4464 0.461613 15.2737ZM15.6421 13.8879C16.2576 15.5506 18.8751 16.9364 22.5399 16.9364C26.5739 16.9364 29.6839 15.7353 30.6388 13.1793C30.9465 12.409 30.9773 11.9474 30.9773 11.4243C30.9773 10.9626 30.9773 10.5617 30.6695 9.82312C30.0541 8.16043 27.4365 6.77472 23.7717 6.77472C19.7377 6.77472 16.6277 7.97579 15.6728 10.5318C15.3651 11.302 15.3343 11.7637 15.3343 12.2868C15.3343 12.7484 15.3343 13.1494 15.6421 13.8879V13.8879Z" fill="white"/>
<path d="M20.3935 12.6025C20.6198 13.2138 21.582 13.7234 22.9299 13.7234C24.4131 13.7234 25.5567 13.2822 25.9076 12.342C26.0208 12.0587 26.0321 11.8894 26.0321 11.6965C26.0321 11.5264 26.0321 11.3798 25.919 11.108C25.6927 10.4966 24.7305 9.98706 23.3825 9.98706C21.8994 9.98706 20.7557 10.4283 20.4049 11.3684C20.2917 11.6517 20.2803 11.8211 20.2803 12.0139C20.2803 12.1841 20.2803 12.3306 20.3935 12.6025Z" fill="white"/>
<path d="M59.246 19.616C63.5931 19.616 66.6206 14.977 66.6206 10.5424C66.6206 6.31215 63.923 4.61597 61.109 4.61597C56.7619 4.61597 53.7344 9.25493 53.7344 13.6895C53.7344 17.9198 56.4319 19.616 59.246 19.616ZM57.0724 13.6078C57.0724 11.1963 58.8578 7.72223 61.0314 7.72223C62.2346 7.72223 63.2826 8.53967 63.2826 10.6241C63.2826 13.0356 61.4778 16.5097 59.3236 16.5097C58.1204 16.5097 57.0724 15.6923 57.0724 13.6078Z" fill="white"/>
<path d="M65.1589 19.2686H68.2834L70.7287 9.88845L71.078 19.2686H73.9308L79.1513 9.90888L76.706 19.2686H79.8305L83.6149 4.96338H78.8796L73.5233 14.8544L73.2128 4.96338H68.9432L65.1589 19.2686Z" fill="white"/>
<path d="M80.5738 19.2686H83.7759L86.26 9.99063L88.5112 19.2686H92.0045L95.7888 4.96338H92.5867L90.122 14.2413L87.8708 4.96338H84.3581L80.5738 19.2686Z" fill="white"/>
<path d="M92.7479 19.2686H95.95L99.7344 4.96338H96.5322L92.7479 19.2686Z" fill="white"/>
</svg>
