<svg width="165" height="50" viewBox="0 0 165 50" fill="none" xmlns="http://www.w3.org/2000/svg">
<rect x="0.869792" y="1.19804" width="163.382" height="47.724" rx="4.38282" stroke="white" stroke-opacity="0.5" stroke-width="0.973959"/>
<path d="M58.112 13.1817C58.112 14.2019 57.81 15.0139 57.205 15.6202C56.5171 16.3409 55.6223 16.7013 54.5217 16.7013C53.4662 16.7013 52.5702 16.3361 51.8336 15.6044C51.0946 14.8739 50.727 13.9669 50.727 12.8858C50.727 11.8035 51.0946 10.8977 51.8336 10.1661C52.5702 9.43559 53.4662 9.06914 54.5217 9.06914C55.044 9.06914 55.5456 9.17141 56.0204 9.37594C56.4964 9.58047 56.8775 9.85196 57.1636 10.1916L56.5208 10.8344C56.0374 10.2574 55.3715 9.96762 54.5217 9.96762C53.7523 9.96762 53.0876 10.2379 52.5263 10.7784C51.9651 11.3202 51.6851 12.0214 51.6851 12.8858C51.6851 13.749 51.9651 14.4515 52.5263 14.992C53.0876 15.5338 53.7523 15.8028 54.5217 15.8028C55.3374 15.8028 56.0167 15.5313 56.5622 14.9871C56.9152 14.6329 57.1185 14.141 57.1733 13.5079H54.5217V12.6302H58.0608C58.0949 12.8213 58.112 13.0051 58.112 13.1817Z" fill="white"/>
<path d="M58.112 13.1817C58.112 14.2019 57.81 15.0139 57.205 15.6202C56.5171 16.3409 55.6223 16.7013 54.5217 16.7013C53.4662 16.7013 52.5702 16.3361 51.8336 15.6044C51.0946 14.8739 50.727 13.9669 50.727 12.8858C50.727 11.8035 51.0946 10.8977 51.8336 10.1661C52.5702 9.43559 53.4662 9.06914 54.5217 9.06914C55.044 9.06914 55.5456 9.17141 56.0204 9.37594C56.4964 9.58047 56.8775 9.85196 57.1636 10.1916L56.5208 10.8344C56.0374 10.2574 55.3715 9.96762 54.5217 9.96762C53.7523 9.96762 53.0876 10.2379 52.5263 10.7784C51.9651 11.3202 51.6851 12.0214 51.6851 12.8858C51.6851 13.749 51.9651 14.4515 52.5263 14.992C53.0876 15.5338 53.7523 15.8028 54.5217 15.8028C55.3374 15.8028 56.0167 15.5313 56.5622 14.9871C56.9152 14.6329 57.1185 14.141 57.1733 13.5079H54.5217V12.6302H58.0608C58.0949 12.8213 58.112 13.0051 58.112 13.1817Z" fill="white"/>
<path d="M63.7236 10.1309H60.3975V12.4465H63.3973V13.3242H60.3975V15.6398H63.7236V16.5383H59.4589V9.23364H63.7236V10.1309Z" fill="white"/>
<path d="M63.7236 10.1309H60.3975V12.4465H63.3973V13.3242H60.3975V15.6398H63.7236V16.5383H59.4589V9.23364H63.7236V10.1309Z" fill="white"/>
<path d="M67.6815 16.538H66.7428V10.1306H64.7024V9.23331H69.7219V10.1306H67.6815V16.538Z" fill="white"/>
<path d="M67.6815 16.538H66.7428V10.1306H64.7024V9.23331H69.7219V10.1306H67.6815V16.538Z" fill="white"/>
<path d="M73.3538 9.23331H74.2924V16.538H73.3538V9.23331Z" fill="white"/>
<path d="M78.4553 16.538H77.5167V10.1306H75.4763V9.23331H80.4958V10.1306H78.4553V16.538Z" fill="white"/>
<path d="M78.4553 16.538H77.5167V10.1306H75.4763V9.23331H80.4958V10.1306H78.4553V16.538Z" fill="white"/>
<path d="M85.335 14.9823C85.8755 15.5301 86.5366 15.8028 87.3194 15.8028C88.1022 15.8028 88.7633 15.5301 89.3038 14.9823C89.8444 14.4344 90.1159 13.7356 90.1159 12.8858C90.1159 12.0361 89.8444 11.336 89.3038 10.7894C88.7633 10.2415 88.1022 9.96762 87.3194 9.96762C86.5366 9.96762 85.8755 10.2415 85.335 10.7894C84.7957 11.336 84.5242 12.0361 84.5242 12.8858C84.5242 13.7356 84.7957 14.4344 85.335 14.9823ZM89.9978 15.5934C89.2795 16.3324 88.3871 16.7013 87.3194 16.7013C86.2517 16.7013 85.3593 16.3324 84.6423 15.5934C83.924 14.8557 83.566 13.9535 83.566 12.8858C83.566 11.8181 83.924 10.9148 84.6423 10.177C85.3593 9.43925 86.2517 9.06914 87.3194 9.06914C88.381 9.06914 89.271 9.44046 89.9929 10.1819C90.7136 10.9233 91.074 11.8242 91.074 12.8858C91.074 13.9535 90.7149 14.8557 89.9978 15.5934Z" fill="white"/>
<path d="M85.335 14.9823C85.8755 15.5301 86.5366 15.8028 87.3194 15.8028C88.1022 15.8028 88.7633 15.5301 89.3038 14.9823C89.8444 14.4344 90.1159 13.7356 90.1159 12.8858C90.1159 12.0361 89.8444 11.336 89.3038 10.7894C88.7633 10.2415 88.1022 9.96762 87.3194 9.96762C86.5366 9.96762 85.8755 10.2415 85.335 10.7894C84.7957 11.336 84.5242 12.0361 84.5242 12.8858C84.5242 13.7356 84.7957 14.4344 85.335 14.9823ZM89.9978 15.5934C89.2795 16.3324 88.3871 16.7013 87.3194 16.7013C86.2517 16.7013 85.3593 16.3324 84.6423 15.5934C83.924 14.8557 83.566 13.9535 83.566 12.8858C83.566 11.8181 83.924 10.9148 84.6423 10.177C85.3593 9.43925 86.2517 9.06914 87.3194 9.06914C88.381 9.06914 89.271 9.44046 89.9929 10.1819C90.7136 10.9233 91.074 11.8242 91.074 12.8858C91.074 13.9535 90.7149 14.8557 89.9978 15.5934Z" fill="white"/>
<path d="M92.3912 16.538V9.23331H93.5331L97.0832 14.9151H97.1246L97.0832 13.5077V9.23331H98.0231V16.538H97.043L93.3286 10.5798H93.2884L93.3286 11.9884V16.538H92.3912Z" fill="white"/>
<path d="M92.3912 16.538V9.23331H93.5331L97.0832 14.9151H97.1246L97.0832 13.5077V9.23331H98.0231V16.538H97.043L93.3286 10.5798H93.2884L93.3286 11.9884V16.538H92.3912Z" fill="white"/>
<path d="M130.571 37.2345H132.843V22.0152H130.571V37.2345ZM151.033 27.4974L148.429 34.0959H148.351L145.648 27.4974H143.201L147.254 36.7195L144.944 41.8498H147.312L153.559 27.4974H151.033ZM138.15 35.5057C137.405 35.5057 136.367 35.1344 136.367 34.2128C136.367 33.0392 137.659 32.5887 138.776 32.5887C139.774 32.5887 140.245 32.8042 140.851 33.0976C140.675 34.5074 139.461 35.5057 138.15 35.5057ZM138.424 27.165C136.779 27.165 135.075 27.8894 134.371 29.4952L136.387 30.3364C136.818 29.4952 137.62 29.2201 138.463 29.2201C139.637 29.2201 140.832 29.925 140.851 31.1789V31.3348C140.44 31.0998 139.56 30.7479 138.482 30.7479C136.309 30.7479 134.096 31.9423 134.096 34.1738C134.096 36.2106 135.878 37.523 137.875 37.523C139.403 37.523 140.245 36.8376 140.773 36.0341H140.851V37.2089H143.044V31.3737C143.044 28.6722 141.028 27.165 138.424 27.165M124.384 29.3503H121.153V24.1336H124.384C126.082 24.1336 127.047 25.5397 127.047 26.7413C127.047 27.921 126.082 29.3503 124.384 29.3503ZM124.326 22.0152H118.883V37.2345H121.153V31.4687H124.326C126.843 31.4687 129.318 29.6449 129.318 26.7413C129.318 23.8377 126.843 22.0152 124.326 22.0152M94.6432 35.5081C93.0739 35.5081 91.7603 34.1945 91.7603 32.3903C91.7603 30.5665 93.0739 29.2322 94.6432 29.2322C96.193 29.2322 97.408 30.5665 97.408 32.3903C97.408 34.1945 96.193 35.5081 94.6432 35.5081ZM97.2522 28.3496H97.1731C96.663 27.7421 95.6829 27.193 94.4472 27.193C91.8577 27.193 89.4849 29.4672 89.4849 32.3903C89.4849 35.2927 91.8577 37.5486 94.4472 37.5486C95.6829 37.5486 96.663 36.9995 97.1731 36.3713H97.2522V37.1176C97.2522 39.0984 96.193 40.1576 94.4862 40.1576C93.0934 40.1576 92.2303 39.1568 91.8772 38.3131L89.8964 39.1373C90.465 40.5106 91.9758 42.1968 94.4862 42.1968C97.1536 42.1968 99.4095 40.6275 99.4095 36.8035V27.5059H97.2522V28.3496ZM100.979 37.2345H103.254V22.014H100.979V37.2345ZM106.607 32.2137C106.549 30.2135 108.157 29.1933 109.313 29.1933C110.217 29.1933 110.981 29.6437 111.236 30.2914L106.607 32.2137ZM113.668 30.4874C113.237 29.3308 111.922 27.193 109.236 27.193C106.568 27.193 104.352 29.2907 104.352 32.3708C104.352 35.2732 106.549 37.5486 109.49 37.5486C111.864 37.5486 113.237 36.0974 113.806 35.2537L112.04 34.0764C111.452 34.9396 110.648 35.5081 109.49 35.5081C108.333 35.5081 107.509 34.9786 106.98 33.9401L113.903 31.0754L113.668 30.4874ZM58.5083 28.7818V30.978H63.764C63.607 32.2137 63.1955 33.1159 62.5685 33.7429C61.8027 34.5086 60.606 35.3523 58.5083 35.3523C55.2711 35.3523 52.7413 32.7433 52.7413 29.5074C52.7413 26.2702 55.2711 23.6624 58.5083 23.6624C60.2541 23.6624 61.5288 24.3491 62.4699 25.2317L64.0197 23.6819C62.7048 22.4267 60.9602 21.4649 58.5083 21.4649C54.0756 21.4649 50.349 25.0747 50.349 29.5074C50.349 33.9401 54.0756 37.5486 58.5083 37.5486C60.9006 37.5486 62.7048 36.7633 64.1171 35.2927C65.5695 33.8415 66.0199 31.8022 66.0199 30.1538C66.0199 29.6437 65.981 29.1738 65.9018 28.7818H58.5083ZM71.9964 35.5081C70.4271 35.5081 69.0733 34.214 69.0733 32.3708C69.0733 30.5069 70.4271 29.2322 71.9964 29.2322C73.5644 29.2322 74.9182 30.5069 74.9182 32.3708C74.9182 34.214 73.5644 35.5081 71.9964 35.5081ZM71.9964 27.193C69.1317 27.193 66.7979 29.3698 66.7979 32.3708C66.7979 35.3523 69.1317 37.5486 71.9964 37.5486C74.8598 37.5486 77.1936 35.3523 77.1936 32.3708C77.1936 29.3698 74.8598 27.193 71.9964 27.193ZM83.3344 35.5081C81.7651 35.5081 80.4113 34.214 80.4113 32.3708C80.4113 30.5069 81.7651 29.2322 83.3344 29.2322C84.9037 29.2322 86.2563 30.5069 86.2563 32.3708C86.2563 34.214 84.9037 35.5081 83.3344 35.5081ZM83.3344 27.193C80.471 27.193 78.1371 29.3698 78.1371 32.3708C78.1371 35.3523 80.471 37.5486 83.3344 37.5486C86.1978 37.5486 88.5317 35.3523 88.5317 32.3708C88.5317 29.3698 86.1978 27.193 83.3344 27.193Z" fill="white"/>
<path d="M25.6048 24.3589L12.6427 38.116C12.6439 38.1184 12.6439 38.1221 12.6451 38.1245C13.0432 39.6183 14.4067 40.7177 16.0259 40.7177C16.6736 40.7177 17.2811 40.5424 17.8022 40.2356L17.8436 40.2112L32.4334 31.7926L25.6048 24.3589Z" fill="#EA4335"/>
<path d="M38.7178 22.0163L38.7056 22.0078L32.4065 18.3567L25.3101 24.6716L32.4321 31.7912L38.6971 28.1766C39.7952 27.5825 40.5415 26.4247 40.5415 25.0904C40.5415 23.7634 39.8062 22.6117 38.7178 22.0163Z" fill="#FBBC04"/>
<path d="M12.6424 12.0055C12.5645 12.2928 12.5231 12.5948 12.5231 12.9064V37.2163C12.5231 37.528 12.5645 37.8299 12.6437 38.116L26.0501 24.7108L12.6424 12.0055Z" fill="#4285F4"/>
<path d="M25.7005 25.0612L32.4086 18.3543L17.8359 9.90521C17.3063 9.58746 16.6878 9.40484 16.0267 9.40484C14.4075 9.40484 13.0416 10.5066 12.6435 12.0016C12.6435 12.0029 12.6422 12.0041 12.6422 12.0053L25.7005 25.0612Z" fill="#34A853"/>
</svg>
