<svg width="20" height="20" viewBox="0 0 20 20" fill="none" xmlns="http://www.w3.org/2000/svg">
<g clip-path="url(#clip0_7_93)">
<path d="M19.1953 6.07032L16.836 8.42189C16.3672 13.8828 11.7578 18.125 6.25002 18.125C5.11721 18.125 4.17971 17.9453 3.46878 17.5938C2.89846 17.3047 2.66409 17 2.60159 16.9063C2.54988 16.8277 2.51655 16.7385 2.50411 16.6453C2.49166 16.5521 2.5004 16.4573 2.52969 16.3679C2.55897 16.2786 2.60805 16.197 2.67325 16.1292C2.73845 16.0614 2.81811 16.0093 2.90628 15.9766C2.9219 15.9688 4.76565 15.2656 5.96096 13.9141C5.21967 13.3863 4.56811 12.7426 4.03127 12.0078C2.96096 10.5547 1.82815 8.03126 2.50784 4.26564C2.5292 4.15369 2.58041 4.04959 2.65604 3.96433C2.73167 3.87907 2.82892 3.81582 2.93752 3.78126C3.04647 3.74559 3.16313 3.74057 3.27475 3.76675C3.38636 3.79293 3.48862 3.8493 3.57034 3.9297C3.59378 3.96095 6.19534 6.52345 9.37502 7.35157V6.87501C9.37809 6.37947 9.47874 5.88939 9.67121 5.43275C9.86368 4.97611 10.1442 4.56185 10.4968 4.21363C10.8494 3.86541 11.2671 3.59005 11.7261 3.40326C12.1851 3.21647 12.6764 3.12192 13.1719 3.12501C13.8223 3.13429 14.4592 3.31187 15.0205 3.64047C15.5819 3.96906 16.0485 4.43745 16.375 5.00001H18.75C18.8734 4.99963 18.9942 5.03577 19.097 5.1039C19.1999 5.17202 19.2803 5.26907 19.3282 5.38282C19.3732 5.49827 19.3846 5.6241 19.3611 5.74577C19.3376 5.86743 19.2801 5.97996 19.1953 6.07032V6.07032Z" fill="#9E9E9E"/>
</g>
<defs>
<clipPath id="clip0_7_93">
<rect width="20" height="20" fill="white"/>
</clipPath>
</defs>
</svg>
